HIERARCHY
ROOT pelvis
{
	OFFSET 0.003123 -0.351407 0.012037
	CHANNELS 6 Xposition Yposition Zposition Zrotation Yrotation Xrotation 
	JOINT left_hip
	{
		OFFSET 0.058189 -0.092763 -0.026001
		CHANNELS 3 Zrotation Yrotation Xrotation
		JOINT left_knee
		{
			OFFSET 0.054695 -0.378753 -0.009396
			CHANNELS 3 Zrotation Yrotation Xrotation
			JOINT left_ankle
			{
				OFFSET -0.043453 -0.403059 -0.031876
				CHANNELS 3 Zrotation Yrotation Xrotation
				JOINT left_foot
				{
					OFFSET 0.047257 -0.057997 0.118216
					CHANNELS 3 Zrotation Yrotation Xrotation
					End Site
					{
						OFFSET 0.000000 0.000000 0.000000
					}
				}
			}
		}
	}
	JOINT right_hip
	{
		OFFSET -0.063267 -0.103908 -0.021250
		CHANNELS 3 Zrotation Yrotation Xrotation
		JOINT right_knee
		{
			OFFSET -0.044210 -0.362380 -0.016824
			CHANNELS 3 Zrotation Yrotation Xrotation
			JOINT right_ankle
			{
				OFFSET 0.015417 -0.410728 -0.020192
				CHANNELS 3 Zrotation Yrotation Xrotation
				JOINT right_foot
				{
					OFFSET -0.038812 -0.058328 0.119049
					CHANNELS 3 Zrotation Yrotation Xrotation
					End Site
					{
						OFFSET 0.000000 0.000000 0.000000
					}
				}
			}
		}
	}
	JOINT spine_1
	{
		OFFSET -0.002763 0.109891 -0.027618
		CHANNELS 3 Zrotation Yrotation Xrotation
		JOINT spine_2
		{
			OFFSET 0.009448 0.131853 -0.005940
			CHANNELS 3 Zrotation Yrotation Xrotation
			JOINT spine_3
			{
				OFFSET -0.011330 0.052235 0.028447
				CHANNELS 3 Zrotation Yrotation Xrotation
				JOINT neck
				{
					OFFSET -0.012164 0.165167 -0.031615
					CHANNELS 3 Zrotation Yrotation Xrotation
					JOINT head
					{
						OFFSET 0.024783 0.160452 0.020737
						CHANNELS 3 Zrotation Yrotation Xrotation
						End Site
						{
							OFFSET 0.000000 0.000000 0.000000
						}
					}
				}
				JOINT left_collar
				{
					OFFSET 0.046364 0.084944 -0.007220
					CHANNELS 3 Zrotation Yrotation Xrotation
					JOINT left_shoulder
					{
						OFFSET 0.119239 0.057728 -0.015461
						CHANNELS 3 Zrotation Yrotation Xrotation
						JOINT left_elbow
						{
							OFFSET 0.254123 -0.072151 -0.042459
							CHANNELS 3 Zrotation Yrotation Xrotation
							JOINT left_wrist
							{
								OFFSET 0.251987 0.023221 -0.002472
								CHANNELS 3 Zrotation Yrotation Xrotation
								JOINT left_index_1
								{
									OFFSET 0.101902 -0.008688 0.019351
									CHANNELS 3 Zrotation Yrotation Xrotation
									JOINT left_index_2
									{
										OFFSET 0.030149 -0.011154 0.001151
										CHANNELS 3 Zrotation Yrotation Xrotation
										JOINT left_index_3
										{
											OFFSET 0.006504 -0.021577 -0.002433
											CHANNELS 3 Zrotation Yrotation Xrotation
											End Site
											{
												OFFSET 0.000000 0.000000 0.000000
											}
										}
									}
								}
								JOINT left_middle_1
								{
									OFFSET 0.109398 -0.006328 -0.003981
									CHANNELS 3 Zrotation Yrotation Xrotation
									JOINT left_middle_2
									{
										OFFSET 0.026472 -0.015218 -0.004641
										CHANNELS 3 Zrotation Yrotation Xrotation
										JOINT left_middle_3
										{
											OFFSET 0.005022 -0.023347 -0.001911
											CHANNELS 3 Zrotation Yrotation Xrotation
											End Site
											{
												OFFSET 0.000000 0.000000 0.000000
											}
										}
									}
								}
								JOINT left_pinky_1
								{
									OFFSET 0.084047 -0.014539 -0.043750
									CHANNELS 3 Zrotation Yrotation Xrotation
									JOINT left_pinky_2
									{
										OFFSET 0.012124 -0.014448 -0.005375
										CHANNELS 3 Zrotation Yrotation Xrotation
										JOINT left_pinky_3
										{
											OFFSET 0.003798 -0.018853 0.000167
											CHANNELS 3 Zrotation Yrotation Xrotation
											End Site
											{
												OFFSET 0.000000 0.000000 0.000000
											}
										}
									}
								}
								JOINT left_ring_1
								{
									OFFSET 0.097444 -0.009268 -0.027345
									CHANNELS 3 Zrotation Yrotation Xrotation
									JOINT left_ring_2
									{
										OFFSET 0.023561 -0.016057 -0.001895
										CHANNELS 3 Zrotation Yrotation Xrotation
										JOINT left_ring_3
										{
											OFFSET 0.004257 -0.023548 0.000814
											CHANNELS 3 Zrotation Yrotation Xrotation
											End Site
											{
												OFFSET 0.000000 0.000000 0.000000
											}
										}
									}
								}
								JOINT left_thumb_1
								{
									OFFSET 0.040636 -0.017977 0.025611
									CHANNELS 3 Zrotation Yrotation Xrotation
									JOINT left_thumb_2
									{
										OFFSET 0.021637 -0.017639 0.011623
										CHANNELS 3 Zrotation Yrotation Xrotation
										JOINT left_thumb_3
										{
											OFFSET 0.024002 -0.008356 0.006548
											CHANNELS 3 Zrotation Yrotation Xrotation
											End Site
											{
												OFFSET 0.000000 0.000000 0.000000
											}
										}
									}
								}
							}
						}
					}
				}
				JOINT right_collar
				{
					OFFSET -0.047695 0.084339 -0.013400
					CHANNELS 3 Zrotation Yrotation Xrotation
					JOINT right_shoulder
					{
						OFFSET -0.102578 0.053524 -0.012669
						CHANNELS 3 Zrotation Yrotation Xrotation
						JOINT right_elbow
						{
							OFFSET -0.271150 -0.036492 -0.026467
							CHANNELS 3 Zrotation Yrotation Xrotation
							JOINT right_wrist
							{
								OFFSET -0.249267 -0.004533 -0.015325
								CHANNELS 3 Zrotation Yrotation Xrotation
								JOINT right_index_1
								{
									OFFSET -0.099881 -0.011783 0.019600
									CHANNELS 3 Zrotation Yrotation Xrotation
									JOINT right_index_2
									{
										OFFSET -0.030148 -0.011154 0.001151
										CHANNELS 3 Zrotation Yrotation Xrotation
										JOINT right_index_3
										{
											OFFSET -0.006505 -0.021577 -0.002432
											CHANNELS 3 Zrotation Yrotation Xrotation
											End Site
											{
												OFFSET 0.000000 0.000000 0.000000
											}
										}
									}
								}
								JOINT right_middle_1
								{
									OFFSET -0.107376 -0.009422 -0.003734
									CHANNELS 3 Zrotation Yrotation Xrotation
									JOINT right_middle_2
									{
										OFFSET -0.026472 -0.015218 -0.004641
										CHANNELS 3 Zrotation Yrotation Xrotation
										JOINT right_middle_3
										{
											OFFSET -0.005022 -0.023347 -0.001911
											CHANNELS 3 Zrotation Yrotation Xrotation
											End Site
											{
												OFFSET 0.000000 0.000000 0.000000
											}
										}
									}
								}
								JOINT right_pinky_1
								{
									OFFSET -0.082027 -0.017634 -0.043503
									CHANNELS 3 Zrotation Yrotation Xrotation
									JOINT right_pinky_2
									{
										OFFSET -0.012123 -0.014448 -0.005374
										CHANNELS 3 Zrotation Yrotation Xrotation
										JOINT right_pinky_3
										{
											OFFSET -0.003798 -0.018852 0.000167
											CHANNELS 3 Zrotation Yrotation Xrotation
											End Site
											{
												OFFSET 0.000000 0.000000 0.000000
											}
										}
									}
								}
								JOINT right_ring_1
								{
									OFFSET -0.095423 -0.012362 -0.027099
									CHANNELS 3 Zrotation Yrotation Xrotation
									JOINT right_ring_2
									{
										OFFSET -0.023561 -0.016057 -0.001895
										CHANNELS 3 Zrotation Yrotation Xrotation
										JOINT right_ring_3
										{
											OFFSET -0.004257 -0.023548 0.000816
											CHANNELS 3 Zrotation Yrotation Xrotation
											End Site
											{
												OFFSET 0.000000 0.000000 0.000000
											}
										}
									}
								}
								JOINT right_thumb_1
								{
									OFFSET -0.038613 -0.021074 0.025861
									CHANNELS 3 Zrotation Yrotation Xrotation
									JOINT right_thumb_2
									{
										OFFSET -0.021636 -0.017639 0.011623
										CHANNELS 3 Zrotation Yrotation Xrotation
										JOINT right_thumb_3
										{
											OFFSET -0.024004 -0.008353 0.006547
											CHANNELS 3 Zrotation Yrotation Xrotation
											End Site
											{
												OFFSET 0.000000 0.000000 0.000000
											}
										}
									}
								}
							}
						}
					}
				}
			}
		}
	}
}
MOTION
Frames: 5
Frame Time: 0.050000
-0.935608 0.976236 0.208469 -7.825467 -78.930384 -3.291630 -0.638746 2.197781 -18.801647 2.645706 4.640656 25.762625 -2.146545 5.361205 41.689212 0.000000 0.000000 0.000000 4.605155 0.225695 11.316037 17.855634 4.083351 25.873974 -8.128607 -19.438846 25.427263 0.000000 0.000000 0.000000 -0.552991 -0.980122 8.777213 -5.895078 -2.991912 -14.726450 2.500261 -11.567218 27.823689 2.489420 -0.555868 -1.541382 0.000000 0.000000 0.000000 -5.405950 17.370391 -7.495452 -39.652123 13.499450 1.544520 -116.123236 -52.068783 111.497978 4.995705 -16.925133 -2.704938 -16.595469 -2.576044 0.158957 -12.856409 4.103237 5.881788 0.000000 0.000000 0.000000 -12.044923 -6.928588 -4.872579 -26.305568 -2.015317 -9.561222 0.000000 0.000000 0.000000 -2.775535 -14.044707 -16.845021 -15.676625 -4.652648 -13.292496 0.000000 0.000000 0.000000 -14.902598 -7.675287 -4.742779 -20.674654 -6.803981 -16.809410 0.000000 0.000000 0.000000 6.125376 26.724785 23.450586 -2.662442 -18.240490 -5.116578 0.000000 0.000000 0.000000 -2.954843 14.001049 4.803330 49.178180 6.182629 -19.709393 128.545859 53.870229 59.088188 10.735526 12.358119 41.698888 23.414030 -3.907300 -0.978460 -0.843870 -10.529148 21.597732 0.000000 0.000000 0.000000 14.710659 2.289611 -4.335686 27.027624 -9.610482 4.429772 0.000000 0.000000 0.000000 -18.972228 13.690107 -4.367928 76.753091 8.647636 -21.085568 0.000000 0.000000 0.000000 7.444801 1.266712 -1.770940 50.688867 -6.379496 -4.662582 0.000000 0.000000 0.000000 -6.488789 -36.246378 34.511861 -1.428714 22.202947 -8.502843 0.000000 0.000000 0.000000 
-0.995911 0.993965 0.212099 -12.301250 -78.645198 0.576649 -0.769704 1.153795 -14.161165 -1.685095 2.412742 11.172032 1.444163 11.724973 52.823324 0.000000 0.000000 0.000000 3.248530 0.593316 11.743361 21.512784 4.617776 28.585688 -2.195853 -18.868841 35.753272 0.000000 0.000000 0.000000 0.498647 -0.997281 7.346107 -6.947827 -3.101903 -15.628782 3.093754 -11.786254 29.489499 1.256560 -0.350335 -0.946072 0.000000 0.000000 0.000000 -4.938526 18.884756 -8.643655 -39.718045 17.761757 2.133171 -113.104609 -50.744965 105.260169 2.936573 -17.475940 1.258040 -17.277392 -2.328776 0.065940 -11.668291 4.471816 6.503645 0.000000 0.000000 0.000000 -10.357744 -7.310536 -5.023638 -26.231408 -0.887306 -8.064921 0.000000 0.000000 0.000000 4.648748 -13.779996 -14.713035 -36.090965 -8.016240 -14.439794 0.000000 0.000000 0.000000 -11.193363 -6.894949 -4.485261 -21.084246 -6.241401 -16.422864 0.000000 0.000000 0.000000 6.118980 27.283239 24.570340 5.027994 -16.655924 -7.895813 0.000000 0.000000 0.000000 -4.592266 15.209764 6.500854 48.853293 7.382033 -20.219666 131.602491 53.343656 60.859043 12.020644 11.980013 42.309454 17.521105 -6.737263 0.853508 12.390895 -9.255925 9.085445 0.000000 0.000000 0.000000 13.688422 2.247287 -4.078259 30.502762 -11.142879 4.707690 0.000000 0.000000 0.000000 -22.383934 14.080052 -4.255365 78.150219 4.174004 -20.802570 0.000000 0.000000 0.000000 2.265863 0.317403 -0.801977 56.804402 -6.978686 -4.692470 0.000000 0.000000 0.000000 -14.140696 -37.272065 37.941859 8.974293 30.376424 -6.056772 0.000000 0.000000 0.000000 
-1.056213 1.001057 0.215729 -14.399058 -75.990016 3.967813 -2.124107 0.410889 -12.483110 -1.806718 1.244930 2.143047 -6.946083 2.818177 46.323558 0.000000 0.000000 0.000000 2.264393 0.310157 9.088876 25.484243 5.080614 32.209102 1.618638 -17.995410 43.115460 0.000000 0.000000 0.000000 0.346310 -0.317598 3.147182 -6.161723 -3.373719 -16.349061 2.662863 -12.844322 30.623220 0.796637 -0.145979 2.134463 0.000000 0.000000 0.000000 -4.610606 18.856490 -8.789374 -39.518201 20.113061 2.338698 -110.973543 -49.261353 99.728951 1.414827 -15.917926 4.301291 -17.907892 -1.855861 0.062157 -10.463032 4.818966 7.425633 0.000000 0.000000 0.000000 -8.938103 -7.245398 -4.944795 -26.038969 -0.053401 -6.828589 0.000000 0.000000 0.000000 11.430779 -14.453495 -13.852804 -38.708958 -8.641562 -15.446456 0.000000 0.000000 0.000000 -7.675183 -6.880387 -4.493355 -35.956715 -5.858411 -11.004316 0.000000 0.000000 0.000000 6.032951 28.221698 25.924869 5.159672 -17.813655 -8.405159 0.000000 0.000000 0.000000 -4.883278 13.969966 6.156834 48.715326 6.437353 -20.438373 131.222045 51.840242 58.178092 11.593038 10.439723 41.690291 25.888611 -3.516781 -1.521879 -3.052153 -8.033546 18.983672 0.000000 0.000000 0.000000 12.329557 2.545287 -3.869308 27.565752 -10.297679 5.160919 0.000000 0.000000 0.000000 -22.070398 14.098409 -4.057879 82.691800 -14.084850 -20.663711 0.000000 0.000000 0.000000 1.571920 0.606465 -0.743178 51.984221 -7.221244 -3.830435 0.000000 0.000000 0.000000 -11.624901 -37.523528 37.242108 6.090075 28.324408 -6.980015 0.000000 0.000000 0.000000 
-1.108978 0.993965 0.218039 -21.347704 -74.412814 8.734497 -1.721189 0.301836 -11.006750 -1.541819 1.176031 2.764542 -10.627733 -1.163338 43.462430 0.000000 0.000000 0.000000 2.108771 0.153353 7.584854 32.586537 5.753966 39.578399 -1.110825 -19.392357 42.373732 0.000000 0.000000 0.000000 2.441419 -1.103198 6.717273 -7.244670 -4.504268 -21.487310 4.099060 -10.493737 34.088058 1.453563 -0.211285 3.691846 0.000000 0.000000 0.000000 -4.068618 16.694216 -7.284929 -42.032400 19.471198 1.883569 -108.704317 -51.285589 98.557534 2.478982 -17.019474 2.179565 -18.749436 -0.748883 0.481706 -12.312249 4.825450 7.230999 0.000000 0.000000 0.000000 -18.051799 -4.763047 -4.709215 -14.841712 -1.380932 -8.266589 0.000000 0.000000 0.000000 0.039230 -12.510054 -14.194872 -23.896763 -7.130987 -17.067872 0.000000 0.000000 0.000000 -17.364037 -5.513152 -3.866533 -25.780643 -6.556273 -14.794053 0.000000 0.000000 0.000000 5.155691 28.062590 25.452714 4.611697 -17.362156 -7.971647 0.000000 0.000000 0.000000 -4.617751 12.177640 4.811264 48.456312 5.926282 -20.207382 131.943619 51.050302 57.791993 11.116231 11.287419 41.002114 24.930592 -3.869020 -1.161058 0.429812 -10.614844 21.099679 0.000000 0.000000 0.000000 11.863354 0.404344 -2.832928 30.361337 -9.377860 1.983105 0.000000 0.000000 0.000000 -22.064100 13.045196 -3.037119 76.874522 14.633056 -22.704553 0.000000 0.000000 0.000000 0.913844 -1.425443 0.131730 57.049044 -7.105835 -3.704986 0.000000 0.000000 0.000000 -11.269202 -37.095159 37.445259 4.330212 28.375849 -7.605939 0.000000 0.000000 0.000000 
-1.161743 0.974625 0.219688 -24.432010 -71.886896 9.418105 -1.126769 0.362577 -11.118801 -2.775549 2.603104 11.472402 -4.425361 0.766686 35.244818 0.000000 0.000000 0.000000 1.290671 0.167871 6.797702 39.674838 5.210376 45.169586 -8.950979 -23.505732 38.523800 0.000000 0.000000 0.000000 2.767065 -1.351086 8.359353 -5.630197 -3.908488 -17.528097 3.539131 -11.038816 31.776476 2.223399 -0.585943 -0.012915 0.000000 0.000000 0.000000 -4.363911 17.122335 -7.723487 -42.664227 17.860084 1.098931 -109.986392 -51.432235 99.637377 0.979041 -15.327961 4.199498 -12.738136 -1.581079 -0.019465 -18.780124 5.953921 5.822961 0.000000 0.000000 0.000000 -12.707590 -6.017031 -4.756399 -19.180135 -2.076388 -10.991060 0.000000 0.000000 0.000000 6.107916 -14.300621 -14.785164 -41.471926 -9.819496 -16.412479 0.000000 0.000000 0.000000 -12.214681 -6.750172 -4.475768 -27.719193 -7.425081 -17.335049 0.000000 0.000000 0.000000 8.947778 27.119437 24.540560 -5.302889 -18.659928 -3.981149 0.000000 0.000000 0.000000 -4.637828 9.827364 3.982554 48.728333 8.131501 -18.830827 132.520741 52.113579 61.831967 13.124618 11.083916 40.500130 22.802590 -3.281439 -0.917523 1.957323 -8.764977 16.013036 0.000000 0.000000 0.000000 10.372393 1.718068 -3.043510 30.939901 -8.998604 -0.097455 0.000000 0.000000 0.000000 -15.042569 14.886820 -5.182565 76.263966 -4.297236 -17.228151 0.000000 0.000000 0.000000 2.935941 -1.195761 -0.148105 55.634112 -5.475378 -7.077875 0.000000 0.000000 0.000000 -6.426175 -34.559486 33.823809 -7.408390 17.489939 -9.582876 0.000000 0.000000 0.000000 
